<svg width="154" height="138" viewBox="0 0 154 138" fill="none" xmlns="http://www.w3.org/2000/svg">
<path d="M153.508 62.5C154.749 44.1566 138.422 16.9944 133.008 16C133.008 16 103.008 62.5 89.008 90.5C89.448 94.844 91.2703 97.1417 91.008 101.5C90.7371 106 85.3525 108.541 87.508 112.5C89.8718 116.842 100.008 114.5 100.008 114.5C114.008 112 115.008 91.5002 116.508 91.0002C119.008 94.5002 121.651 105.5 120.508 109.5C119.508 113 116.371 114.732 117.508 118C118.773 121.637 122.508 123 126.008 123C134.508 123.5 141.508 117 146.008 111C154.508 98.0002 154.508 75.5002 153.508 62.5Z" fill="#0A5D69"/>
<rect x="25" width="123" height="92" rx="46" fill="#F3F6F7"/>
<path d="M72.4244 90.5C81.9244 62.5 75.9243 14.5 53.4243 4C45.0895 4.33581 32.4244 12 32.4244 12C32.4244 12 3.44873 46.9211 0.42439 74C0.924437 84.5 6.9249 101.5 4.92439 116C2.42444 118.39 1.92443 119 0.42439 121.5C-1.57557 125.5 3.92432 128 7.92439 128C12.9244 128 19.3002 126.159 24.4244 121.5C31.0529 115.473 30.4243 107.5 32.4244 100C35.9244 104.5 35.4243 121.5 32.9243 125.5C29.4243 131.5 29.9244 133.5 32.4244 136C39.4244 139.833 52.9244 136 58.9244 128C67.4244 114.5 68.1399 106 72.4244 90.5Z" fill="#0A5D69"/>
</svg>
